<?xml version="1.0" encoding="UTF-8"?>
<!DOCTYPE svg PUBLIC "-//W3C//DTD SVG 1.0//EN" "http://www.w3.org/TR/2001/REC-SVG-20010904/DTD/svg10.dtd">
<!-- Creator: CorelDRAW 2018 -->
<svg xmlns="http://www.w3.org/2000/svg" xml:space="preserve" width="20mm" height="20mm" version="1.0" style="shape-rendering:geometricPrecision; text-rendering:geometricPrecision; image-rendering:optimizeQuality; fill-rule:evenodd; clip-rule:evenodd"
viewBox="0 0 20 20"
 xmlns:xlink="http://www.w3.org/1999/xlink">
 <defs>
  <style type="text/css">
   <![CDATA[
    .fil2 {fill:#333333}
    .fil1 {fill:#FEFEFE}
    .fil0 {fill:#FFF001}
    .fil3 {fill:black;fill-rule:nonzero}
   ]]>
  </style>
 </defs>
 <g id="Capa_x0020_1">
  <metadata id="CorelCorpID_0Corel-Layer"/>
  <circle class="fil0" cx="10" cy="10" r="10"/>
  <rect class="fil1" x="11.3334" y="4.8043" width="5.016" height="3.8152"/>
  <rect class="fil1" x="11.1923" y="9.9617" width="5.7933" height="2.6139"/>
  <rect class="fil2" x="7.5095" y="16.2495" width="5.2988" height="2.2609"/>
  <path class="fil3" d="M3.5196 12.5724l0 -7.7877 3.1247 0c0.6358,0 1.1457,0.0779 1.5314,0.2356 0.3837,0.1578 0.6842,0.4007 0.9013,0.7288 0.2191,0.3263 0.3276,0.6689 0.3276,1.0278 0,0.3318 -0.0969,0.6454 -0.2888,0.9391 -0.1919,0.2936 -0.4827,0.5311 -0.8722,0.7124 0.5039,0.1377 0.8915,0.3734 1.161,0.707 0.2714,0.3317 0.4071,0.7251 0.4071,1.1783 0,0.3662 -0.0834,0.7051 -0.2481,1.0188 -0.1648,0.3136 -0.3684,0.5547 -0.6107,0.7251 -0.2423,0.1686 -0.5466,0.2973 -0.911,0.3843 -0.3663,0.087 -0.8141,0.1305 -1.3452,0.1305l-3.1771 0zm1.1049 -4.5138l1.8008 0c0.4885,0 0.8393,-0.0308 1.0506,-0.0907 0.281,-0.0779 0.4923,-0.2084 0.6339,-0.3897 0.1415,-0.1813 0.2132,-0.4079 0.2132,-0.6816 0,-0.2593 -0.066,-0.4877 -0.1996,-0.6834 -0.1319,-0.1976 -0.3219,-0.3336 -0.568,-0.4061 -0.2462,-0.0725 -0.6688,-0.1088 -1.2658,-0.1088l-1.6651 0 0 2.3603zm0 3.6002l2.0741 0c0.3567,0 0.6068,-0.0127 0.7521,-0.0381 0.252,-0.0417 0.4652,-0.1124 0.6358,-0.2121 0.1705,-0.0997 0.3102,-0.2447 0.4207,-0.4351 0.1104,-0.1903 0.1647,-0.4097 0.1647,-0.658 0,-0.2919 -0.0794,-0.5439 -0.2403,-0.7596 -0.1591,-0.2157 -0.38,-0.3662 -0.663,-0.4532 -0.281,-0.087 -0.6881,-0.1305 -1.2173,-0.1305l-1.9268 0 0 2.6866z"/>
 </g>
</svg>
