<?xml version="1.0" encoding="UTF-8"?>
<!DOCTYPE svg PUBLIC "-//W3C//DTD SVG 1.0//EN" "http://www.w3.org/TR/2001/REC-SVG-20010904/DTD/svg10.dtd">
<!-- Creator: CorelDRAW 2018 -->
<svg xmlns="http://www.w3.org/2000/svg" xml:space="preserve" width="20mm" height="20mm" version="1.0" style="shape-rendering:geometricPrecision; text-rendering:geometricPrecision; image-rendering:optimizeQuality; fill-rule:evenodd; clip-rule:evenodd"
viewBox="0 0 20 20"
 xmlns:xlink="http://www.w3.org/1999/xlink">
 <defs>
  <style type="text/css">
   <![CDATA[
    .fil0 {fill:#0184CA}
    .fil3 {fill:#333333}
    .fil2 {fill:#6AB63A}
    .fil1 {fill:#FEFEFE}
    .fil4 {fill:black;fill-rule:nonzero}
   ]]>
  </style>
 </defs>
 <g id="Capa_x0020_1">
  <metadata id="CorelCorpID_0Corel-Layer"/>
  <path class="fil0" d="M9.9975 20c5.5227,0 10,-4.4772 10,-10 0,-5.5228 -4.4773,-10 -10,-10l0 20z"/>
  <rect class="fil1" x="11.3308" y="4.8043" width="5.016" height="3.8152"/>
  <rect class="fil1" x="11.1897" y="9.9617" width="5.7933" height="2.6139"/>
  <path class="fil2" d="M10.0139 20c-5.5227,0 -10,-4.4772 -10,-10 0,-5.5228 4.4773,-10 10,-10l0 20z"/>
  <rect class="fil3" x="7.5069" y="16.2495" width="5.2988" height="2.2609"/>
  <g id="_663708064">
   <path class="fil4" d="M5.3139 12.7615c0,-0.2986 0.045,-0.5496 0.1344,-0.7528 0.0661,-0.1494 0.1575,-0.2837 0.2728,-0.4024 0.1152,-0.1186 0.2414,-0.2066 0.3784,-0.2645 0.1828,-0.0771 0.3935,-0.116 0.6322,-0.116 0.4323,0 0.7774,0.1344 1.0372,0.4024 0.2591,0.2686 0.3887,0.6417 0.3887,1.1197 0,0.4739 -0.1289,0.8449 -0.386,1.1122 -0.2571,0.268 -0.6014,0.4017 -1.0317,0.4017 -0.4358,0 -0.7829,-0.133 -1.04,-0.3996 -0.2571,-0.266 -0.386,-0.6329 -0.386,-1.1007zm0.6097 -0.0197c0,0.3321 0.077,0.5837 0.2305,0.7555 0.1534,0.1712 0.3484,0.2571 0.5844,0.2571 0.2366,0 0.4303,-0.0852 0.5824,-0.255 0.1514,-0.1705 0.2271,-0.4255 0.2271,-0.7658 0,-0.3362 -0.0737,-0.5872 -0.2217,-0.7522 -0.1473,-0.1657 -0.343,-0.2482 -0.5878,-0.2482 -0.2441,0 -0.4412,0.0839 -0.5906,0.2509 -0.1493,0.1678 -0.2243,0.4201 -0.2243,0.7577z"/>
   <polygon class="fil4" points="5.4076,5.6615 5.4076,2.7319 7.5761,2.7319 7.5761,3.227 6.0009,3.227 6.0009,3.8776 7.4657,3.8776 7.4657,4.3726 6.0009,4.3726 6.0009,5.1664 7.6334,5.1664 7.6334,5.6615 "/>
   <path class="fil4" d="M7.3648 8.9266l0.6691 0.0081c-0.0436,0.3495 -0.2891,0.7364 -0.5154,0.9032 -0.2257,0.1666 -0.5125,0.2501 -0.8599,0.2501 -0.4303,0 -0.7838,-0.1418 -1.0611,-0.4251 -0.2765,-0.2833 -0.4153,-0.6707 -0.4153,-1.1625 0,-0.5194 0.1395,-0.9234 0.4176,-1.2111 0.2781,-0.2877 0.6443,-0.4315 1.098,-0.4315 0.3963,0 0.7178,0.1139 0.9654,0.3393 0.1473,0.1341 0.3297,0.3912 0.3377,0.7317l-0.6527 -0.0074c-0.0385,-0.1613 -0.1183,-0.2892 -0.2396,-0.3828 -0.1221,-0.0938 -0.2698,-0.1402 -0.4432,-0.1402 -0.2404,0 -0.4355,0.0827 -0.585,0.2491 -0.1499,0.1657 -0.2244,0.4345 -0.2244,0.8065 0,0.3937 0.0738,0.6748 0.2207,0.8419 0.1479,0.1679 0.3393,0.2515 0.5751,0.2515 0.1742,0 0.3243,-0.0534 0.4491,-0.1599 0.1249,-0.1066 0.2456,-0.232 0.2639,-0.4609z"/>
  </g>
 </g>
</svg>
