<?xml version="1.0" encoding="UTF-8"?>
<!DOCTYPE svg PUBLIC "-//W3C//DTD SVG 1.0//EN" "http://www.w3.org/TR/2001/REC-SVG-20010904/DTD/svg10.dtd">
<!-- Creator: CorelDRAW 2018 -->
<svg xmlns="http://www.w3.org/2000/svg" xml:space="preserve" width="20mm" height="20mm" version="1.0" style="shape-rendering:geometricPrecision; text-rendering:geometricPrecision; image-rendering:optimizeQuality; fill-rule:evenodd; clip-rule:evenodd"
viewBox="0 0 20 20"
 xmlns:xlink="http://www.w3.org/1999/xlink">
 <defs>
  <style type="text/css">
   <![CDATA[
    .fil0 {fill:#1666B7}
    .fil2 {fill:#333333}
    .fil1 {fill:#FEFEFE}
    .fil3 {fill:black;fill-rule:nonzero}
   ]]>
  </style>
 </defs>
 <g id="Capa_x0020_1">
  <metadata id="CorelCorpID_0Corel-Layer"/>
  <circle class="fil0" cx="10" cy="10" r="10"/>
  <rect class="fil1" x="11.3334" y="4.8043" width="5.016" height="3.8152"/>
  <rect class="fil1" x="11.1923" y="9.9617" width="5.7933" height="2.6139"/>
  <rect class="fil2" x="7.5095" y="16.2495" width="5.2988" height="2.2609"/>
  <path class="fil3" d="M8.79 8.6826c0,0.5752 -0.0324,1.0679 -0.0956,1.48 -0.0632,0.4138 -0.1799,0.7883 -0.3517,1.1233 -0.2155,0.4121 -0.4927,0.731 -0.8346,0.955 -0.342,0.224 -0.7228,0.3351 -1.141,0.3351 -0.4797,0 -0.9124,-0.1506 -1.2932,-0.4516 -0.3809,-0.301 -0.6678,-0.7166 -0.8623,-1.247 -0.0972,-0.2902 -0.1685,-0.6127 -0.2155,-0.9639 -0.0454,-0.3512 -0.068,-0.731 -0.068,-1.1413 0,-0.5285 0.0258,-1.0033 0.0761,-1.4262 0.0502,-0.4246 0.1297,-0.7883 0.2366,-1.0929 0.1864,-0.5035 0.4587,-0.8869 0.8136,-1.1503 0.3565,-0.2633 0.7812,-0.3959 1.2754,-0.3959 0.3258,0 0.6223,0.0591 0.8882,0.1756 0.2657,0.1182 0.4991,0.2884 0.7001,0.5142 0.2009,0.2257 0.3711,0.5052 0.5105,0.8367 0.2415,0.5769 0.3614,1.3939 0.3614,2.4492zm-1.303 -0.1039c0,-0.6396 -0.034,-1.1646 -0.1037,-1.5713 -0.0697,-0.4085 -0.188,-0.7167 -0.3517,-0.9245 -0.1653,-0.2078 -0.3939,-0.3118 -0.684,-0.3118 -0.418,0 -0.7081,0.233 -0.8719,0.6988 -0.1636,0.464 -0.2446,1.1807 -0.2446,2.15 0,0.6576 0.034,1.1969 0.1036,1.6161 0.0698,0.4211 0.1881,0.7382 0.3517,0.9532 0.1654,0.215 0.389,0.3225 0.671,0.3225 0.2901,0 0.5186,-0.1111 0.6839,-0.3351 0.1637,-0.2239 0.2787,-0.5446 0.3452,-0.9603 0.0665,-0.4175 0.1005,-0.9621 0.1005,-1.6376z"/>
 </g>
</svg>
