<?xml version="1.0" encoding="UTF-8"?>
<!DOCTYPE svg PUBLIC "-//W3C//DTD SVG 1.0//EN" "http://www.w3.org/TR/2001/REC-SVG-20010904/DTD/svg10.dtd">
<!-- Creator: CorelDRAW 2018 -->
<svg xmlns="http://www.w3.org/2000/svg" xml:space="preserve" width="20mm" height="20mm" version="1.0" style="shape-rendering:geometricPrecision; text-rendering:geometricPrecision; image-rendering:optimizeQuality; fill-rule:evenodd; clip-rule:evenodd"
viewBox="0 0 20 20"
 xmlns:xlink="http://www.w3.org/1999/xlink">
 <defs>
  <style type="text/css">
   <![CDATA[
    .fil2 {fill:#333333}
    .fil0 {fill:#6DB43A}
    .fil1 {fill:#FEFEFE}
    .fil3 {fill:black;fill-rule:nonzero}
   ]]>
  </style>
 </defs>
 <g id="Capa_x0020_1">
  <metadata id="CorelCorpID_0Corel-Layer"/>
  <circle class="fil0" cx="10" cy="10" r="10"/>
  <rect class="fil1" x="11.3334" y="4.8043" width="5.016" height="3.8152"/>
  <rect class="fil1" x="11.1923" y="9.9617" width="5.7933" height="2.6139"/>
  <rect class="fil2" x="7.5095" y="16.2495" width="5.2988" height="2.2609"/>
  <path class="fil3" d="M8.5836 9.6984l1.0807 -0.0191c0.037,1.0073 -0.4908,1.867 -1.0211,2.2925 -0.5302,0.4254 -1.1794,0.6394 -1.9465,0.6394 -0.7932,0 -1.4387,-0.1633 -1.9365,-0.4917 -0.4979,-0.3266 -0.8757,-0.801 -1.1347,-1.4214 -0.2593,-0.6221 -0.3898,-1.2877 -0.3898,-2.0001 0,-0.7768 0.146,-1.4544 0.4394,-2.0331 0.2936,-0.5786 0.7108,-1.0182 1.2517,-1.3189 0.5406,-0.3006 1.1362,-0.45 1.7852,-0.45 0.7381,0 1.358,0.1893 1.8592,0.5699 0.4724,0.3574 0.8101,0.8497 1.013,1.4781 0.0129,0.0406 0.0406,0.3082 0.0526,0.3501l-1.1236 -0.0119c-0.17,-0.542 -0.3594,-0.7869 -0.6831,-1.0341 -0.3244,-0.2475 -0.6878,-0.3204 -1.1804,-0.3268 -0.4752,-0.006 -0.9323,0.0835 -1.2973,0.3817 -0.181,0.1474 -0.557,0.4948 -0.7097,0.9563 -0.1535,0.4636 -0.2472,0.9871 -0.2472,1.479 0,0.6342 0.0753,1.1874 0.3184,1.6308 0.2521,0.4595 0.3788,0.6155 0.7444,0.8808 0.3645,0.2647 0.7396,0.3359 1.1875,0.3359 0.5461,0 0.8867,-0.1294 1.2634,-0.4476 0.3778,-0.3188 0.5944,-0.787 0.6744,-1.4398z"/>
 </g>
</svg>
