<?xml version="1.0" standalone="no"?>
<!DOCTYPE svg PUBLIC "-//W3C//DTD SVG 20010904//EN"
 "http://www.w3.org/TR/2001/REC-SVG-20010904/DTD/svg10.dtd">
<svg version="1.0" xmlns="http://www.w3.org/2000/svg"
 width="512.000000pt" height="512.000000pt" viewBox="0 0 512.000000 512.000000"
 preserveAspectRatio="xMidYMid meet">
  <rect x="40" y="40" width="425" height="425" rx="50" ry="50" fill="#FFFFFF"/>
  <g transform="translate(0.000000,512.000000) scale(0.100000,-0.100000)"
  fill="#277b2a" stroke="none">
    <path d="M1047 4899 c-339 -36 -629 -253 -742 -552 -57 -153 -56 -102 -52
    -1818 l2 -1574 23 -83 c86 -323 309 -543 643 -634 l84 -23 1570 0 1570 0 85
    23 c379 105 612 388 650 795 8 76 10 603 8 1617 l-3 1505 -27 96 c-89 326
    -332 553 -678 635 -70 17 -174 18 -1565 20 -820 1 -1525 -2 -1568 -7z m2683
    -284 c0 -20 -105 -653 -126 -760 -77 -390 -179 -618 -363 -808 -174 -180 -372
    -285 -626 -333 -71 -13 -123 -15 -245 -10 -85 3 -168 8 -185 11 -29 6 -31 4
    -86 -97 -31 -57 -62 -118 -69 -136 -16 -41 -45 -62 -87 -62 -32 0 -73 28 -73
    50 0 59 251 479 435 726 228 307 622 727 855 913 134 107 137 110 65 71 -543
    -295 -919 -648 -1215 -1141 -44 -73 -80 -136 -80 -141 0 -22 -20 -2 -53 55
    -122 205 -141 503 -46 747 45 119 122 233 223 335 204 203 451 322 873 420
    151 35 780 173 796 174 4 1 7 -6 7 -14z m635 -2346 c53 -13 119 -67 145 -120
    19 -37 20 -61 20 -554 0 -572 3 -543 -68 -617 -70 -73 73 -69 -1912 -66 -1667
    3 -1787 4 -1816 20 -44 24 -94 76 -113 118 -24 52 -30 985 -7 1063 19 65 84
    132 147 152 37 11 342 14 1802 14 1251 1 1771 -2 1802 -10z"/>
    <path d="M1559 2010 c-115 -62 -166 -214 -156 -460 6 -154 31 -239 90 -306 53
    -61 89 -78 162 -77 106 1 174 52 216 163 10 27 19 66 19 86 l0 35 -46 -3 -47
    -3 -12 -48 c-16 -64 -44 -99 -88 -114 -77 -26 -144 17 -172 110 -22 71 -30
    246 -16 335 21 132 67 192 150 192 27 0 56 -7 70 -16 28 -20 60 -88 61 -126 0
    -27 2 -28 54 -28 l53 0 -9 53 c-13 79 -56 156 -106 191 -37 26 -54 31 -115 33
    -56 3 -80 -1 -108 -17z"/>
    <path d="M3018 1964 l-128 -64 0 -50 c0 -28 5 -50 10 -50 6 0 32 11 58 24 26
    13 57 27 70 30 l22 7 0 -340 0 -341 50 0 50 0 0 425 c0 234 -1 425 -2 424 -2
    0 -60 -29 -130 -65z"/>
    <path d="M3477 2009 c-46 -24 -92 -93 -106 -160 -17 -79 -17 -79 38 -79 l49 0
    7 47 c9 59 58 113 103 113 82 0 124 -105 86 -216 -19 -56 -46 -100 -180 -298
    -91 -132 -103 -156 -104 -193 l0 -43 210 0 210 0 0 50 0 50 -146 0 c-80 0
    -144 3 -142 8 2 4 50 77 107 162 57 85 112 174 122 197 63 147 39 294 -60 360
    -45 30 -139 31 -194 2z"/>
    <path d="M3995 2016 c-61 -28 -115 -110 -115 -176 0 -29 1 -30 50 -30 44 0 50
    3 50 20 0 53 49 100 104 100 58 0 105 -82 92 -163 -12 -73 -52 -107 -126 -107
    l-40 0 0 -50 0 -50 35 0 c90 0 139 -49 140 -139 0 -98 -39 -151 -112 -151 -50
    0 -103 56 -103 110 0 18 -6 20 -51 20 l-52 0 6 -45 c11 -76 47 -134 102 -163
    112 -58 238 -15 288 97 43 97 15 257 -52 298 -14 10 -28 18 -30 20 -2 1 7 12
    22 23 97 77 93 289 -8 366 -31 24 -49 29 -104 31 -41 2 -77 -2 -96 -11z"/>
    <path d="M855 1600 l0 -420 150 0 c137 0 153 2 190 23 120 68 145 280 44 381
    -39 38 -39 39 -19 53 76 53 83 247 12 327 -39 44 -89 56 -237 56 l-140 0 0
    -420z m296 281 c26 -26 29 -36 29 -90 0 -53 -4 -65 -29 -93 -28 -31 -33 -33
    -110 -36 l-81 -4 0 126 0 126 81 0 c76 0 82 -2 110 -29z m-2 -337 c29 -21 51
    -72 51 -119 0 -47 -22 -98 -51 -119 -17 -12 -46 -16 -106 -16 l-83 0 0 135 0
    135 83 0 c60 0 89 -4 106 -16z"/>
    <path d="M2000 1600 l0 -420 123 0 c145 0 181 13 245 85 78 89 112 244 92 422
    -14 128 -41 196 -105 259 -64 64 -96 74 -242 74 l-113 0 0 -420z m285 270 c58
    -56 70 -103 70 -270 0 -170 -13 -218 -76 -274 -37 -34 -43 -36 -109 -36 l-70
    0 0 311 0 311 75 -4 c69 -3 77 -6 110 -38z"/>
    <path d="M2550 1535 l0 -55 110 0 110 0 0 55 0 55 -110 0 -110 0 0 -55z"/>
  </g>
</svg>
